<svg width="30" height="18" viewBox="0 0 30 18" fill="none" xmlns="http://www.w3.org/2000/svg">
<path d="M8.7264 0C9.59079 0 10.3895 0.0626865 11.1227 0.250745C11.8539 0.376118 12.4558 0.637609 12.9902 0.951041C13.5265 1.26626 13.9221 1.71402 14.1921 2.28895C14.4546 2.86208 14.5971 3.56237 14.5971 4.32536C14.5971 5.21371 14.3984 5.97669 13.9296 6.54982C13.5265 7.12296 12.8683 7.63519 12.0602 8.0131C13.1965 8.32832 14.0609 8.90146 14.5877 9.66444C15.1146 10.4274 15.4521 11.3785 15.4521 12.4638C15.4521 13.3522 15.2553 14.1152 14.9178 14.7528C14.5811 15.3946 14.0759 15.9419 13.4515 16.3414C12.8515 16.7265 12.1183 17.0399 11.3196 17.2298C10.5371 17.4272 9.73245 17.533 8.92327 17.545L0 17.5575V0H8.7264ZM8.19201 7.12475C8.92327 7.12475 9.52329 6.93669 9.98642 6.6143C10.4477 6.29191 10.6521 5.72416 10.6521 5.02565C10.6521 4.63879 10.5864 4.26267 10.4552 4.01013C10.3131 3.75418 10.107 3.53576 9.85517 3.37431C9.58316 3.23264 9.29242 3.12662 8.99078 3.05909C8.66077 2.99641 8.32326 2.99641 7.92763 2.99641H4.06882V7.1337C4.06882 7.12475 8.19389 7.12475 8.19389 7.12475H8.19201ZM8.38889 14.6346C8.79202 14.6346 9.18765 14.5719 9.52516 14.5092C9.85517 14.4465 10.1927 14.3193 10.4552 14.1223C10.7177 13.9253 10.9239 13.7373 11.1227 13.4238C11.2539 13.1086 11.3852 12.7235 11.3852 12.2758C11.3852 11.3874 11.1227 10.7498 10.5864 10.302C10.052 9.91697 9.31891 9.72892 8.45452 9.72892H4.06882V14.6256H8.39077V14.6346H8.38889ZM21.2479 14.5719C21.7841 15.0823 22.581 15.3349 23.6441 15.3349C24.3754 15.3349 25.0429 15.145 25.5792 14.8226C26.1136 14.4376 26.4417 14.0596 26.5729 13.6764H29.8355C29.2992 15.2005 28.5005 16.2859 27.4392 16.9862C26.3779 17.622 25.1085 17.9999 23.5766 17.9999C22.5971 18.0041 21.6255 17.8309 20.7135 17.4895C19.8926 17.198 19.1602 16.7168 18.5816 16.0889C17.9644 15.5034 17.5061 14.7828 17.2465 13.9898C16.9184 13.1641 16.7778 12.2758 16.7778 11.2531C16.7778 10.302 16.909 9.40474 17.2465 8.57907C17.584 7.75519 18.0453 7.05311 18.6472 6.41729C19.2472 5.84416 19.9803 5.33192 20.7791 5.0167C21.6697 4.67797 22.6199 4.50472 23.5785 4.50625C24.7148 4.50625 25.7104 4.69431 26.5748 5.14207C27.4373 5.58983 28.1067 6.0949 28.6411 6.85788C29.1755 7.55639 29.5711 8.38206 29.843 9.2722C29.9743 10.1606 30.0399 11.0561 29.9743 12.0716H20.3178C20.3178 13.1104 20.7116 14.0596 21.2479 14.5719V14.5719ZM25.4479 7.88773C24.9792 7.43997 24.2442 7.18743 23.3798 7.18743C22.7798 7.18743 22.3185 7.31281 21.9154 7.50266C21.5122 7.69071 21.2479 7.95042 20.9854 8.20116C20.7403 8.44699 20.5771 8.7568 20.5166 9.09131C20.4491 9.40474 20.3853 9.66444 20.3853 9.91518H26.3779C26.2467 8.9731 25.9092 8.33549 25.4461 7.88773H25.4479ZM19.5847 1.21074H27.0436V2.92476H19.5847V1.21074V1.21074Z" fill="#FCFCFC"/>
</svg>
