<svg width="154" height="134" viewBox="0 0 154 134" fill="none" xmlns="http://www.w3.org/2000/svg">
<path d="M14.376 14.3571C14.376 10.5494 15.8887 6.8976 18.5811 4.20511C21.2736 1.51262 24.9254 0 28.7332 0H124.447C128.255 0 131.907 1.51262 134.6 4.20511C137.292 6.8976 138.805 10.5494 138.805 14.3571V48.4601C142.918 49.5178 146.563 51.9133 149.166 55.2697C151.768 58.6261 153.181 62.7528 153.181 67C153.181 71.2472 151.768 75.3739 149.166 78.7303C146.563 82.0867 142.918 84.4822 138.805 85.5399V119.643C138.805 123.451 137.292 127.102 134.6 129.795C131.907 132.487 128.255 134 124.447 134H28.7332C24.9254 134 21.2736 132.487 18.5811 129.795C15.8887 127.102 14.376 123.451 14.376 119.643V85.5399C10.2626 84.4822 6.61767 82.0867 4.01507 78.7303C1.41248 75.3739 0 71.2472 0 67C0 62.7528 1.41248 58.6261 4.01507 55.2697C6.61767 51.9133 10.2626 49.5178 14.376 48.4601V14.3571ZM23.9475 48.4601C28.0609 49.5178 31.7058 51.9133 34.3084 55.2697C36.911 58.6261 38.3235 62.7528 38.3235 67C38.3235 71.2472 36.911 75.3739 34.3084 78.7303C31.7058 82.0867 28.0609 84.4822 23.9475 85.5399V119.643C23.9475 120.912 24.4517 122.129 25.3492 123.027C26.2467 123.924 27.4639 124.429 28.7332 124.429H124.447C125.717 124.429 126.934 123.924 127.831 123.027C128.729 122.129 129.233 120.912 129.233 119.643V85.5399C125.12 84.4822 121.475 82.0867 118.872 78.7303C116.27 75.3739 114.857 71.2472 114.857 67C114.857 62.7528 116.27 58.6261 118.872 55.2697C121.475 51.9133 125.12 49.5178 129.233 48.4601V14.3571C129.233 13.0879 128.729 11.8706 127.831 10.9731C126.934 10.0756 125.717 9.57143 124.447 9.57143H28.7332C27.4639 9.57143 26.2467 10.0756 25.3492 10.9731C24.4517 11.8706 23.9475 13.0879 23.9475 14.3571V48.4601ZM19.1617 57.4286C16.6232 57.4286 14.1887 58.437 12.3937 60.232C10.5987 62.027 9.59031 64.4615 9.59031 67C9.59031 69.5385 10.5987 71.973 12.3937 73.768C14.1887 75.563 16.6232 76.5714 19.1617 76.5714C21.7002 76.5714 24.1348 75.563 25.9298 73.768C27.7248 71.973 28.7332 69.5385 28.7332 67C28.7332 64.4615 27.7248 62.027 25.9298 60.232C24.1348 58.437 21.7002 57.4286 19.1617 57.4286ZM134.019 57.4286C131.48 57.4286 129.046 58.437 127.251 60.232C125.456 62.027 124.447 64.4615 124.447 67C124.447 69.5385 125.456 71.973 127.251 73.768C129.046 75.563 131.48 76.5714 134.019 76.5714C136.557 76.5714 138.992 75.563 140.787 73.768C142.582 71.973 143.59 69.5385 143.59 67C143.59 64.4615 142.582 62.027 140.787 60.232C138.992 58.437 136.557 57.4286 134.019 57.4286Z" fill="#FCFCFC"/>
<path d="M109.459 28.7144H43.722L43.0903 47.7998H46.7849C48.7949 35.8164 52.6426 33.9595 67.5836 33.4905L70.8666 33.3852V94.0968C70.8666 99.2366 69.7563 100.462 60.8262 101.256V105.286H92.3545V101.256C83.3765 100.462 82.2662 99.2462 82.2662 94.0968V33.3852L85.597 33.4809C100.528 33.9595 104.386 35.8164 106.396 47.7998H110.09L109.459 28.7144Z" fill="#FCFCFC"/>
</svg>
