<svg width="134" height="134" viewBox="0 0 134 134" fill="none" xmlns="http://www.w3.org/2000/svg">
<path fill-rule="evenodd" clip-rule="evenodd" d="M8.375 20.9375C8.375 17.6057 9.69855 14.4104 12.0545 12.0545C14.4104 9.69855 17.6057 8.375 20.9375 8.375H29.3125C32.6443 8.375 35.8396 9.69855 38.1955 12.0545C40.5515 14.4104 41.875 17.6057 41.875 20.9375H76.4972C77.4191 19.3409 78.8419 18.093 80.5452 17.3875C82.2485 16.682 84.137 16.5582 85.9178 17.0354C87.6986 17.5125 89.2722 18.564 90.3945 20.0266C91.5169 21.4893 92.1252 23.2814 92.1252 25.125C92.1252 26.9686 91.5169 28.7607 90.3945 30.2234C89.2722 31.686 87.6986 32.7375 85.9178 33.2146C84.137 33.6918 82.2485 33.568 80.5452 32.8625C78.8419 32.157 77.4191 30.9091 76.4972 29.3125H59.6635C61.171 30.82 62.511 32.5034 63.717 34.3794C69.0602 42.6874 71.1875 54.0941 71.1875 67C71.1875 83.6914 73.3399 92.8955 77.1589 97.9875C80.1404 101.974 84.6545 104.026 92.125 104.554C92.1603 101.245 93.4994 98.084 95.8515 95.757C98.2036 93.4299 101.379 92.1248 104.688 92.125H113.062C116.394 92.125 119.59 93.4485 121.946 95.8045C124.301 98.1604 125.625 101.356 125.625 104.688V113.062C125.625 116.394 124.301 119.59 121.946 121.946C119.59 124.301 116.394 125.625 113.062 125.625H104.688C101.356 125.625 98.1604 124.301 95.8045 121.946C93.4485 119.59 92.125 116.394 92.125 113.062H57.5028C56.5809 114.659 55.158 115.907 53.4548 116.612C51.7515 117.318 49.863 117.442 48.0822 116.965C46.3014 116.487 44.7278 115.436 43.6055 113.973C42.4831 112.511 41.8748 110.719 41.8748 108.875C41.8748 107.031 42.4831 105.239 43.6055 103.777C44.7278 102.314 46.3014 101.263 48.0822 100.785C49.863 100.308 51.7515 100.432 53.4548 101.138C55.158 101.843 56.5809 103.091 57.5028 104.688H71.8324C71.3465 104.151 70.8854 103.592 70.4505 103.013C64.8476 95.5336 62.8125 83.8086 62.8125 67C62.8125 54.7725 60.7523 45.2501 56.6736 38.9019C53.4074 33.835 48.7006 30.5269 41.875 29.5889C41.8027 32.8725 40.4474 35.9973 38.0992 38.2938C35.7511 40.5903 32.5969 41.8758 29.3125 41.875H20.9375C17.6057 41.875 14.4104 40.5515 12.0545 38.1955C9.69855 35.8396 8.375 32.6443 8.375 29.3125V20.9375ZM20.9375 16.75C19.8269 16.75 18.7618 17.1912 17.9765 17.9765C17.1912 18.7618 16.75 19.8269 16.75 20.9375V29.3125C16.75 30.4231 17.1912 31.4882 17.9765 32.2735C18.7618 33.0588 19.8269 33.5 20.9375 33.5H29.3125C30.4231 33.5 31.4882 33.0588 32.2735 32.2735C33.0588 31.4882 33.5 30.4231 33.5 29.3125V20.9375C33.5 19.8269 33.0588 18.7618 32.2735 17.9765C31.4882 17.1912 30.4231 16.75 29.3125 16.75H20.9375ZM104.688 100.5C103.577 100.5 102.512 100.941 101.726 101.726C100.941 102.512 100.5 103.577 100.5 104.688V113.062C100.5 114.173 100.941 115.238 101.726 116.024C102.512 116.809 103.577 117.25 104.688 117.25H113.062C114.173 117.25 115.238 116.809 116.024 116.024C116.809 115.238 117.25 114.173 117.25 113.062V104.688C117.25 103.577 116.809 102.512 116.024 101.726C115.238 100.941 114.173 100.5 113.062 100.5H104.688Z" fill="#FCFCFC"/>
</svg>
