<svg width="134" height="134" viewBox="0 0 134 134" fill="none" xmlns="http://www.w3.org/2000/svg">
<path d="M80.9779 7.236L67 0L53.0221 7.236L37.4614 9.59775L30.4096 23.6677L19.2122 34.7227L21.775 50.25L19.2122 65.7773L30.4096 76.8322L37.4614 90.9023L53.0221 93.264L67 100.5L80.9779 93.264L96.5386 90.9023L103.59 76.8322L114.788 65.7773L112.225 50.25L114.788 34.7227L103.59 23.6677L96.5386 9.59775L80.9779 7.236ZM90.9944 17.2274L96.7229 28.6593L105.818 37.6372L103.741 50.25L105.818 62.8628L96.7229 71.8408L90.9944 83.2726L78.3481 85.1905L67 91.0697L55.6519 85.1905L43.0056 83.2726L37.2771 71.8408L28.1819 62.8628L30.2673 50.25L28.1735 37.6372L37.2771 28.6593L43.0056 17.2274L55.6519 15.3095L67 9.43025L78.3565 15.3095L90.9944 17.2274Z" fill="#FCFCFC"/>
<path d="M33.5 98.7748V134L67 125.625L100.5 134V98.7748L83.5993 101.338L67 109.93L50.4008 101.338L33.5 98.7748Z" fill="#FCFCFC"/>
</svg>
