<svg width="31" height="21" viewBox="0 0 31 21" fill="none" xmlns="http://www.w3.org/2000/svg">
<path d="M26.2435 1.74201C24.2334 0.922171 22.1123 0.337037 19.9331 0.00119604C19.9134 -0.00175894 19.8931 0.00079318 19.8751 0.00850157C19.857 0.01621 19.8421 0.028696 19.8324 0.0442429C19.5592 0.474711 19.2569 1.03776 19.0458 1.47856C16.6968 1.16175 14.3074 1.16175 11.9585 1.47856C11.7229 0.98752 11.4564 0.508655 11.1602 0.0442429C11.1503 0.0288663 11.1353 0.0165241 11.1173 0.00884046C11.0994 0.00115684 11.0792 -0.00150812 11.0595 0.00119604C8.8798 0.33524 6.75826 0.920677 4.74909 1.74201C4.7319 1.74784 4.71752 1.7588 4.7084 1.773C0.69007 7.10909 -0.412356 12.3143 0.128201 17.4541C0.130138 17.4782 0.147576 17.5023 0.168888 17.5178C2.50883 19.0582 5.12611 20.2344 7.90912 20.996C7.92877 21.0015 7.94988 21.0013 7.96939 20.9954C7.98891 20.9896 8.0058 20.9783 8.01762 20.9633C8.61436 20.2401 9.14523 19.4773 9.60248 18.6749C9.61201 18.6584 9.61527 18.6396 9.61178 18.6213C9.60829 18.603 9.59823 18.5861 9.5831 18.5733C9.57309 18.5649 9.56121 18.5585 9.54823 18.5544C8.71349 18.2693 7.90504 17.9267 7.13025 17.5299C7.10861 17.519 7.09252 17.5011 7.0853 17.4799C7.07809 17.4588 7.08031 17.436 7.0915 17.4162C7.0981 17.4034 7.10806 17.3922 7.12056 17.3835C7.28331 17.275 7.44606 17.1614 7.60106 17.0478C7.61475 17.038 7.63118 17.0317 7.64859 17.0296C7.66599 17.0274 7.68372 17.0296 7.69987 17.0357C12.7741 19.0951 18.2669 19.0951 23.2791 17.0357C23.2959 17.0293 23.3143 17.027 23.3324 17.0291C23.3504 17.0312 23.3675 17.0377 23.3818 17.0478C23.5368 17.1614 23.6996 17.275 23.8623 17.3835C23.8755 17.3921 23.8861 17.4034 23.8932 17.4165C23.9002 17.4296 23.9035 17.444 23.9027 17.4585C23.902 17.473 23.8972 17.4872 23.8888 17.4996C23.8804 17.512 23.8686 17.5225 23.8546 17.5299C23.0816 17.9304 22.2721 18.2725 21.4347 18.5527C21.4213 18.557 21.4092 18.5638 21.3991 18.5727C21.3891 18.5817 21.3814 18.5925 21.3765 18.6043C21.3721 18.6158 21.3703 18.628 21.3713 18.6402C21.3723 18.6523 21.376 18.6641 21.3824 18.6749C21.8473 19.4756 22.3802 20.2401 22.9653 20.9633C22.9771 20.9783 22.994 20.9896 23.0135 20.9954C23.033 21.0013 23.0541 21.0015 23.0738 20.996C25.8614 20.2367 28.483 19.0605 30.8256 17.5178C30.8374 17.5106 30.8471 17.5011 30.8542 17.4901C30.8612 17.4791 30.8654 17.4668 30.8663 17.4541C31.5134 11.5119 29.7833 6.34975 26.2822 1.77473C26.2787 1.76717 26.2734 1.76035 26.2668 1.75472C26.2601 1.74908 26.2522 1.74476 26.2435 1.74201V1.74201ZM10.36 14.3237C8.83136 14.3237 7.57394 13.0771 7.57394 11.5481C7.57394 10.0173 8.80811 8.7707 10.36 8.7707C11.9236 8.7707 13.1694 10.0277 13.1461 11.5481C13.1461 13.0771 11.912 14.3237 10.36 14.3237ZM20.6597 14.3237C19.1329 14.3237 17.8736 13.0771 17.8736 11.5481C17.8736 10.0173 19.1078 8.7707 20.6597 8.7707C22.2232 8.7707 23.471 10.0277 23.4458 11.5481C23.4458 13.0771 22.2232 14.3237 20.6597 14.3237Z" fill="#FCFCFC"/>
</svg>
