<svg width="29" height="28" viewBox="0 0 29 28" fill="none" xmlns="http://www.w3.org/2000/svg">
<path d="M14.5099 2.81787e-06C11.1289 -0.00206736 7.85339 1.13659 5.24979 3.21908C2.64618 5.30158 0.878134 8.19699 0.251364 11.4047C-0.375406 14.6124 0.1785 17.9307 1.81731 20.7859C3.45612 23.6411 6.0768 25.8537 9.22622 27.041C9.09934 25.9333 8.98333 24.2305 9.27516 23.0213C9.5398 21.9275 10.9754 16.0615 10.9754 16.0615C10.9754 16.0615 10.5422 15.2233 10.5422 13.9843C10.5422 12.0365 11.7113 10.584 13.1668 10.584C14.403 10.584 15.0011 11.48 15.0011 12.5563C15.0011 13.7568 14.209 15.5523 13.7994 17.2165C13.4586 18.6095 14.5244 19.747 15.9473 19.747C18.5248 19.747 20.5059 17.122 20.5059 13.335C20.5059 9.98375 18.01 7.6405 14.4483 7.6405C10.3228 7.6405 7.90122 10.6278 7.90122 13.7148C7.90122 14.9188 8.38155 16.2085 8.97971 16.9103C9.03122 16.9632 9.06764 17.028 9.08543 17.0986C9.10322 17.1691 9.10177 17.2429 9.08121 17.3128C8.97064 17.7538 8.72595 18.7058 8.67882 18.9C8.61538 19.1555 8.46856 19.2098 8.19304 19.0873C6.38046 18.2735 5.24941 15.7168 5.24941 13.6623C5.24941 9.247 8.57369 5.19225 14.8307 5.19225C19.8607 5.19225 23.7704 8.652 23.7704 13.2773C23.7704 18.102 20.6183 21.9853 16.2464 21.9853C14.7764 21.9853 13.3952 21.2485 12.9221 20.377L12.0194 23.7055C11.6913 24.9218 10.8068 26.446 10.2159 27.3753C12.2097 27.9704 14.3131 28.1431 16.3823 27.8815C18.4516 27.6198 20.4379 26.93 22.2057 25.8592C23.9735 24.7884 25.4811 23.3618 26.6255 21.6769C27.7699 19.992 28.524 18.0884 28.8365 16.0963C29.149 14.1041 29.0124 12.0703 28.4361 10.1338C27.8598 8.19731 26.8573 6.40371 25.4972 4.87557C24.137 3.34742 22.4513 2.12072 20.5551 1.27928C18.6588 0.437835 16.5968 0.00147403 14.5099 2.81787e-06V2.81787e-06Z" fill="#FCFCFC"/>
</svg>
