<svg width="29" height="20" viewBox="0 0 29 20" fill="none" xmlns="http://www.w3.org/2000/svg">
<path d="M14.5933 0H14.7547C16.2446 0.00533855 23.7942 0.0587244 25.8297 0.596139C26.4451 0.760154 27.0059 1.07985 27.4559 1.52328C27.906 1.96671 28.2297 2.51834 28.3946 3.12305C28.5777 3.79927 28.7064 4.69437 28.7934 5.61794L28.8115 5.80301L28.8514 6.26568L28.8659 6.45075C28.9837 8.07723 28.9982 9.6005 29 9.93327V10.0667C28.9982 10.412 28.9819 12.0384 28.8514 13.7325L28.8369 13.9194L28.8206 14.1045C28.7299 15.1223 28.5958 16.1331 28.3946 16.8769C28.2302 17.4819 27.9067 18.0338 27.4565 18.4773C27.0064 18.9208 26.4454 19.2403 25.8297 19.4039C23.7271 19.9591 15.7353 19.9982 14.6278 20H14.3704C13.8103 20 11.4938 19.9893 9.06488 19.9075L8.75673 19.8968L8.59904 19.8897L8.28908 19.8772L7.97912 19.8648C5.96712 19.7776 4.05119 19.637 3.16845 19.4021C2.55305 19.2387 1.99218 18.9194 1.54203 18.4763C1.09189 18.0331 0.76827 17.4816 0.6036 16.8769C0.4024 16.1349 0.268267 15.1223 0.177636 14.1045L0.163135 13.9176L0.148634 13.7325C0.0591775 12.5267 0.00960661 11.3184 0 10.1094L0 9.89056C0.00362523 9.50796 0.0181261 8.18578 0.116007 6.72658L0.128696 6.54329L0.134133 6.45075L0.148634 6.26568L0.188512 5.80301L0.206638 5.61794C0.293643 4.69437 0.422339 3.79749 0.605413 3.12305C0.769805 2.5181 1.0933 1.96621 1.54346 1.5227C1.99363 1.0792 2.55464 0.759663 3.17026 0.596139C4.053 0.364801 5.96894 0.22244 7.98094 0.133464L8.28908 0.121007L8.60085 0.11033L8.75673 0.104992L9.06669 0.0925352C10.7918 0.0380367 12.5176 0.00778159 14.2435 0.0017796H14.5933V0ZM11.6007 5.71225V14.286L19.1358 10.0009L11.6007 5.71225Z" fill="#FCFCFC"/>
</svg>
